# xmcd CD database file generated by Grip 3.3.1
# 
# Track frame offsets:
#       150
#       14124
#       37589
#       54103
#       75253
#       92141
#       111298
#       129690
#       145719
#       162679
#       177173
#       192833
#       210518
#       224569
#       242553
#       261624
#       277706
#       292260
#       309789
#       325884
#       341275
# 
# Disc length: 4789 seconds
# 
# Revision: 0
# Processed by: cddbd v1.5.2PL0 Copyright (c) Steve Scherf et al.
# Submitted via: Grip 3.3.1
# 
DISCID=2d12b315
DTITLE=Various Artist - R&B The Collection 2007 - CD1
DYEAR=2007
DGENRE=R&B
TTITLE0=Timbaland (Featuring One Republic) - Apologize
TTITLE1=Kanye West - Stronger
TTITLE2=Rihanna (Featuring NE-YO) - Hate that I love you
TTITLE3=Nicole Scherzinger (Featuring Will.I.Am) - Baby Love
TTITLE4=Common (Featuring Lily Allen) - Drivin' me wild
TTITLE5=Fergie - Big Girls Don't Cry
TTITLE6=Will.I.Am - I got it from my Mama
TTITLE7=Amy Winehouse - Rehab
TTITLE8=Chamillioniare - Ridin'
TTITLE9=Lady Sovereign - Love me or Hate me
TTITLE10=Mutya Buena - Real Girl
TTITLE11=Nelly (Featuring Kelly Rowland) - Dilemma
TTITLE12=Ashanti - Only U
TTITLE13=Bobby (Featuring Timbaland) - Anonymous
TTITLE14=Fabolous (Featuring NE-YO) - Make Me Better
TTITLE15=LL Cool J - Hush
TTITLE16=Taio Cruz - Moving On
TTITLE17=David Jordan - Place in my heart
TTITLE18=JoJo - Too little too late
TTITLE19=Robin Thicke - Lost Without You
TTITLE20=Gwen Stefani (Featuring Akon) - The Sweet Escape
EXTD=
EXTT0=
EXTT1=
EXTT2=
EXTT3=
EXTT4=
EXTT5=
EXTT6=
EXTT7=
EXTT8=
EXTT9=
EXTT10=
EXTT11=
EXTT12=
EXTT13=
EXTT14=
EXTT15=
EXTT16=
EXTT17=
EXTT18=
EXTT19=
EXTT20=
PLAYORDER=
